<svg width="551" height="413" viewBox="0 0 551 413" fill="none" xmlns="http://www.w3.org/2000/svg">
<rect y="376.304" width="551" height="36.6376" rx="3" fill="#F2F2F2"/>
<path d="M81.4653 403.304V395.936L82.7613 399.32L75.1293 386.504H81.1053L86.2653 395.264H82.7853L87.9933 386.504H93.4653L85.8813 399.32L87.1293 395.936V403.304H81.4653ZM111.866 403.688C110.506 403.688 109.242 403.472 108.074 403.04C106.922 402.608 105.922 402 105.074 401.216C104.226 400.416 103.562 399.48 103.082 398.408C102.618 397.336 102.386 396.168 102.386 394.904C102.386 393.624 102.618 392.456 103.082 391.4C103.562 390.328 104.226 389.4 105.074 388.616C105.922 387.816 106.922 387.2 108.074 386.768C109.242 386.336 110.506 386.12 111.866 386.12C113.242 386.12 114.506 386.336 115.658 386.768C116.81 387.2 117.81 387.816 118.658 388.616C119.506 389.4 120.162 390.328 120.626 391.4C121.106 392.456 121.346 393.624 121.346 394.904C121.346 396.168 121.106 397.336 120.626 398.408C120.162 399.48 119.506 400.416 118.658 401.216C117.81 402 116.81 402.608 115.658 403.04C114.506 403.472 113.242 403.688 111.866 403.688ZM111.866 399.104C112.394 399.104 112.882 399.008 113.33 398.816C113.794 398.624 114.194 398.352 114.53 398C114.882 397.632 115.154 397.192 115.346 396.68C115.538 396.152 115.634 395.56 115.634 394.904C115.634 394.248 115.538 393.664 115.346 393.152C115.154 392.624 114.882 392.184 114.53 391.832C114.194 391.464 113.794 391.184 113.33 390.992C112.882 390.8 112.394 390.704 111.866 390.704C111.338 390.704 110.842 390.8 110.378 390.992C109.93 391.184 109.53 391.464 109.178 391.832C108.842 392.184 108.578 392.624 108.386 393.152C108.194 393.664 108.098 394.248 108.098 394.904C108.098 395.56 108.194 396.152 108.386 396.68C108.578 397.192 108.842 397.632 109.178 398C109.53 398.352 109.93 398.624 110.378 398.816C110.842 399.008 111.338 399.104 111.866 399.104ZM141.042 403.688C138.466 403.688 136.458 402.992 135.018 401.6C133.578 400.208 132.858 398.256 132.858 395.744V386.504H138.522V395.576C138.522 396.856 138.754 397.768 139.218 398.312C139.682 398.84 140.306 399.104 141.09 399.104C141.89 399.104 142.514 398.84 142.962 398.312C143.426 397.768 143.658 396.856 143.658 395.576V386.504H149.226V395.744C149.226 398.256 148.506 400.208 147.066 401.6C145.626 402.992 143.618 403.688 141.042 403.688ZM161.422 403.304V386.504H169.51C171.078 386.504 172.43 386.76 173.566 387.272C174.718 387.784 175.606 388.52 176.23 389.48C176.854 390.424 177.166 391.544 177.166 392.84C177.166 394.136 176.854 395.256 176.23 396.2C175.606 397.128 174.718 397.84 173.566 398.336C172.43 398.832 171.078 399.08 169.51 399.08H164.566L167.086 396.752V403.304H161.422ZM171.478 403.304L167.35 397.184H173.35L177.526 403.304H171.478ZM167.086 397.376L164.566 394.808H169.15C169.934 394.808 170.51 394.632 170.878 394.28C171.262 393.928 171.454 393.448 171.454 392.84C171.454 392.232 171.262 391.752 170.878 391.4C170.51 391.048 169.934 390.872 169.15 390.872H164.566L167.086 388.304V397.376ZM210.812 403.688C209.66 403.688 208.492 403.56 207.308 403.304C206.124 403.048 205.084 402.672 204.188 402.176L206.108 398C206.828 398.416 207.58 398.728 208.364 398.936C209.164 399.128 209.916 399.224 210.62 399.224C211.26 399.224 211.78 399.12 212.18 398.912C212.596 398.688 212.804 398.36 212.804 397.928C212.804 397.56 212.652 397.28 212.348 397.088C212.044 396.88 211.532 396.776 210.812 396.776H208.58V393.296L212.924 388.88L213.428 390.776H205.052V386.504H217.58V389.984L213.236 394.4L210.524 392.864H212.012C214.124 392.864 215.732 393.336 216.836 394.28C217.94 395.224 218.492 396.44 218.492 397.928C218.492 398.888 218.22 399.808 217.676 400.688C217.148 401.568 216.316 402.288 215.18 402.848C214.06 403.408 212.604 403.688 210.812 403.688ZM230.042 403.304V386.504H238.322C240.194 386.504 241.842 386.848 243.266 387.536C244.69 388.208 245.802 389.168 246.602 390.416C247.402 391.664 247.802 393.152 247.802 394.88C247.802 396.624 247.402 398.128 246.602 399.392C245.802 400.64 244.69 401.608 243.266 402.296C241.842 402.968 240.194 403.304 238.322 403.304H230.042ZM235.706 398.888H238.082C238.882 398.888 239.578 398.736 240.17 398.432C240.778 398.128 241.25 397.68 241.586 397.088C241.922 396.48 242.09 395.744 242.09 394.88C242.09 394.032 241.922 393.312 241.586 392.72C241.25 392.128 240.778 391.68 240.17 391.376C239.578 391.072 238.882 390.92 238.082 390.92H235.706V398.888ZM282.53 403.688C281.122 403.688 279.762 403.528 278.45 403.208C277.138 402.888 276.058 402.472 275.21 401.96L277.034 397.832C277.834 398.296 278.722 398.672 279.698 398.96C280.69 399.232 281.65 399.368 282.578 399.368C283.122 399.368 283.546 399.336 283.85 399.272C284.17 399.192 284.402 399.088 284.546 398.96C284.69 398.816 284.762 398.648 284.762 398.456C284.762 398.152 284.594 397.912 284.258 397.736C283.922 397.56 283.474 397.416 282.914 397.304C282.37 397.176 281.77 397.048 281.114 396.92C280.458 396.776 279.794 396.592 279.122 396.368C278.466 396.144 277.858 395.848 277.298 395.48C276.754 395.112 276.314 394.632 275.978 394.04C275.642 393.432 275.474 392.68 275.474 391.784C275.474 390.744 275.762 389.8 276.338 388.952C276.93 388.088 277.802 387.4 278.954 386.888C280.122 386.376 281.57 386.12 283.298 386.12C284.434 386.12 285.554 386.24 286.658 386.48C287.762 386.72 288.754 387.088 289.634 387.584L287.93 391.688C287.098 391.272 286.29 390.96 285.506 390.752C284.738 390.544 283.986 390.44 283.25 390.44C282.706 390.44 282.274 390.488 281.954 390.584C281.634 390.68 281.402 390.808 281.258 390.968C281.13 391.128 281.066 391.304 281.066 391.496C281.066 391.784 281.234 392.016 281.57 392.192C281.906 392.352 282.346 392.488 282.89 392.6C283.45 392.712 284.058 392.832 284.714 392.96C285.386 393.088 286.05 393.264 286.706 393.488C287.362 393.712 287.962 394.008 288.506 394.376C289.066 394.744 289.514 395.224 289.85 395.816C290.186 396.408 290.354 397.144 290.354 398.024C290.354 399.048 290.058 399.992 289.466 400.856C288.89 401.704 288.026 402.392 286.874 402.92C285.722 403.432 284.274 403.688 282.53 403.688ZM310.447 403.688C309.087 403.688 307.823 403.472 306.655 403.04C305.503 402.608 304.503 402 303.655 401.216C302.807 400.416 302.143 399.48 301.663 398.408C301.199 397.336 300.967 396.168 300.967 394.904C300.967 393.624 301.199 392.456 301.663 391.4C302.143 390.328 302.807 389.4 303.655 388.616C304.503 387.816 305.503 387.2 306.655 386.768C307.823 386.336 309.087 386.12 310.447 386.12C311.823 386.12 313.087 386.336 314.239 386.768C315.391 387.2 316.391 387.816 317.239 388.616C318.087 389.4 318.743 390.328 319.207 391.4C319.687 392.456 319.927 393.624 319.927 394.904C319.927 396.168 319.687 397.336 319.207 398.408C318.743 399.48 318.087 400.416 317.239 401.216C316.391 402 315.391 402.608 314.239 403.04C313.087 403.472 311.823 403.688 310.447 403.688ZM310.447 399.104C310.975 399.104 311.463 399.008 311.911 398.816C312.375 398.624 312.775 398.352 313.111 398C313.463 397.632 313.735 397.192 313.927 396.68C314.119 396.152 314.215 395.56 314.215 394.904C314.215 394.248 314.119 393.664 313.927 393.152C313.735 392.624 313.463 392.184 313.111 391.832C312.775 391.464 312.375 391.184 311.911 390.992C311.463 390.8 310.975 390.704 310.447 390.704C309.919 390.704 309.423 390.8 308.959 390.992C308.511 391.184 308.111 391.464 307.759 391.832C307.423 392.184 307.159 392.624 306.967 393.152C306.775 393.664 306.679 394.248 306.679 394.904C306.679 395.56 306.775 396.152 306.967 396.68C307.159 397.192 307.423 397.632 307.759 398C308.111 398.352 308.511 398.624 308.959 398.816C309.423 399.008 309.919 399.104 310.447 399.104ZM331.583 403.304V386.504H337.247V398.912H344.831V403.304H331.583ZM363.918 403.688C361.342 403.688 359.334 402.992 357.894 401.6C356.454 400.208 355.734 398.256 355.734 395.744V386.504H361.398V395.576C361.398 396.856 361.63 397.768 362.094 398.312C362.558 398.84 363.182 399.104 363.966 399.104C364.766 399.104 365.39 398.84 365.838 398.312C366.302 397.768 366.534 396.856 366.534 395.576V386.504H372.102V395.744C372.102 398.256 371.382 400.208 369.942 401.6C368.502 402.992 366.494 403.688 363.918 403.688ZM387.712 403.304V390.896H382.792V386.504H398.296V390.896H393.376V403.304H387.712ZM409.367 403.304V386.504H415.031V403.304H409.367ZM436.166 403.688C434.806 403.688 433.542 403.472 432.374 403.04C431.222 402.608 430.222 402 429.374 401.216C428.526 400.416 427.862 399.48 427.382 398.408C426.918 397.336 426.686 396.168 426.686 394.904C426.686 393.624 426.918 392.456 427.382 391.4C427.862 390.328 428.526 389.4 429.374 388.616C430.222 387.816 431.222 387.2 432.374 386.768C433.542 386.336 434.806 386.12 436.166 386.12C437.542 386.12 438.806 386.336 439.958 386.768C441.11 387.2 442.11 387.816 442.958 388.616C443.806 389.4 444.462 390.328 444.926 391.4C445.406 392.456 445.646 393.624 445.646 394.904C445.646 396.168 445.406 397.336 444.926 398.408C444.462 399.48 443.806 400.416 442.958 401.216C442.11 402 441.11 402.608 439.958 403.04C438.806 403.472 437.542 403.688 436.166 403.688ZM436.166 399.104C436.694 399.104 437.182 399.008 437.63 398.816C438.094 398.624 438.494 398.352 438.83 398C439.182 397.632 439.454 397.192 439.646 396.68C439.838 396.152 439.934 395.56 439.934 394.904C439.934 394.248 439.838 393.664 439.646 393.152C439.454 392.624 439.182 392.184 438.83 391.832C438.494 391.464 438.094 391.184 437.63 390.992C437.182 390.8 436.694 390.704 436.166 390.704C435.638 390.704 435.142 390.8 434.678 390.992C434.23 391.184 433.83 391.464 433.478 391.832C433.142 392.184 432.878 392.624 432.686 393.152C432.494 393.664 432.398 394.248 432.398 394.904C432.398 395.56 432.494 396.152 432.686 396.68C432.878 397.192 433.142 397.632 433.478 398C433.83 398.352 434.23 398.624 434.678 398.816C435.142 399.008 435.638 399.104 436.166 399.104ZM457.302 403.304V386.504H461.958L470.502 396.728H468.342V386.504H473.862V403.304H469.206L460.662 393.08H462.822V403.304H457.302Z" fill="#0A0A0A"/>
<g clip-path="url(#clip0_906_44)">
<path d="M23.0261 320.728C22.1115 322.396 20.7365 323.769 19.0637 324.683C17.3909 325.598 15.4901 326.016 13.5861 325.889C11.3669 326 9.16095 325.489 7.21868 324.415C6.5562 323.928 5.94806 323.372 5.40471 322.756C4.11431 321.318 3.17656 319.602 2.66526 317.742C2.17821 315.916 1.96612 314.027 2.03593 312.139V302.296H5.73789V307.899C5.73789 309.374 5.73789 310.738 5.73789 312.212C5.73789 315.53 6.77444 321.834 13.9192 321.834C15.3606 321.87 16.7711 321.415 17.9173 320.544C19.8794 319.069 20.99 316.12 20.99 310.443C21.2052 307.024 20.5294 303.608 19.0279 300.526C17.2421 297.346 15.1333 294.356 12.7346 291.605C10.4293 288.824 8.34963 285.866 6.5153 282.757C4.28296 278.844 3.19309 274.388 3.36864 269.891C3.36381 268.153 3.47512 266.416 3.70181 264.693C4.25711 260.785 6.07107 254.592 13.8452 254.592C16.1727 254.52 18.4602 255.206 20.3606 256.546C24.0626 259.679 24.0626 265.578 24.0626 270.591V275.605H20.3606V269.412C20.4361 267.872 20.3617 266.329 20.1385 264.804C20.1338 263.99 19.9665 263.186 19.6462 262.438C19.326 261.691 18.8593 261.014 18.2734 260.447C17.6875 259.881 16.9941 259.437 16.2338 259.14C15.4735 258.844 14.6615 258.701 13.8452 258.721C12.4438 258.683 11.0676 259.097 9.92111 259.9C8.18119 261.264 7.18166 264.029 7.18166 269.117C6.93457 274.238 8.6554 279.26 11.9942 283.162C13.1788 284.932 14.4375 286.591 15.6962 288.361C17.7231 290.709 19.6142 293.171 21.3602 295.734C24.0028 299.78 25.2981 304.553 25.0621 309.374C25.3013 313.266 24.6033 317.159 23.0261 320.728Z" fill="#F2F2F2"/>
<path d="M102.581 259.9V324.82H98.6201V259.9H88.8469V255.587H112.317V259.9H102.581Z" fill="#F2F2F2"/>
<path d="M199.017 318.074C198.477 320.357 197.17 322.388 195.311 323.83C193.453 325.272 191.155 326.037 188.8 326C186.234 326.031 183.746 325.126 181.803 323.456C181.082 322.826 180.492 322.062 180.063 321.207C178.139 317.246 177.37 312.827 177.842 308.452V255.587H181.544V309.226C181.278 312.196 181.709 315.187 182.803 317.963C183.318 318.859 184.024 319.631 184.872 320.225C185.72 320.818 186.689 321.219 187.71 321.399C188.731 321.578 189.779 321.532 190.779 321.263C191.78 320.994 192.71 320.51 193.501 319.843C196.093 317.41 196.019 313.65 196.019 306.498V255.587H199.721V311.106C199.809 313.45 199.572 315.795 199.017 318.074Z" fill="#F2F2F2"/>
<path d="M291.381 305.503C291.656 311 289.92 316.409 286.495 320.728C285.015 322.42 283.112 323.692 280.979 324.415C279.546 324.819 278.063 325.018 276.574 325.005H269.17V255.587H273.945C278.98 255.587 284.015 256.067 287.568 261.265C290.641 265.873 291.27 272.324 291.27 283.937V299.346C291.455 301.374 291.455 303.365 291.381 305.503ZM287.679 283.826C287.989 277.909 287.326 271.982 285.717 266.278C285.199 265.002 284.421 263.846 283.434 262.882C282.447 261.918 281.271 261.166 279.979 260.675C278.703 260.29 277.386 260.055 276.055 259.974H273.131V320.507H276.277C278.781 320.631 281.235 319.786 283.126 318.148C286.828 314.904 287.679 309.816 287.679 299.715V283.826Z" fill="#F2F2F2"/>
<path d="M360.423 324.82V255.587H364.458V324.82H360.423Z" fill="#F2F2F2"/>
<path d="M454.268 319.733C453.41 321.361 452.159 322.75 450.627 323.775C449.095 324.801 447.331 325.43 445.494 325.605C443.656 325.781 441.804 325.498 440.104 324.781C438.404 324.065 436.91 322.938 435.758 321.502C433.838 318 432.989 314.015 433.315 310.037V270.96C433.281 268.318 433.567 265.682 434.166 263.108C434.663 260.693 436.003 258.531 437.948 257.006C439.892 255.481 442.317 254.691 444.791 254.776C447.387 254.698 449.915 255.608 451.861 257.32C455.785 261.006 455.785 267.016 455.785 272.435V310.701C456.007 313.789 455.486 316.885 454.268 319.733ZM452.232 275.089C452.542 271.145 452.09 267.177 450.899 263.403C450.439 262.076 449.554 260.937 448.382 260.159C447.281 259.445 445.993 259.073 444.68 259.089C443.133 259.08 441.629 259.6 440.422 260.564C439.263 261.825 438.379 263.311 437.824 264.929C437.27 266.547 437.058 268.261 437.202 269.965V308.157C437.077 310.791 437.288 313.429 437.831 316.01C438.257 317.525 439.159 318.865 440.404 319.833C441.65 320.802 443.174 321.348 444.754 321.392C446.36 321.424 447.914 320.828 449.085 319.733C450.378 318.223 451.328 316.454 451.871 314.545C452.414 312.637 452.537 310.634 452.232 308.673V275.089Z" fill="#F2F2F2"/>
<path d="M544.818 320.728C543.893 322.382 542.514 323.74 540.842 324.641C539.169 325.542 537.274 325.95 535.378 325.816C533.165 325.949 530.96 325.464 529.01 324.415C528.348 323.927 527.74 323.371 527.196 322.756C525.905 321.319 524.967 319.602 524.457 317.742C523.97 315.916 523.758 314.027 523.827 312.139V302.296H527.529V307.899C527.529 309.374 527.529 310.738 527.529 312.212C527.529 315.53 528.566 321.834 535.711 321.834C537.152 321.87 538.563 321.415 539.709 320.544C541.671 319.069 542.781 316.12 542.781 310.443C542.995 307.024 542.319 303.608 540.819 300.526C539.031 297.347 536.923 294.358 534.526 291.605C532.175 288.864 530.046 285.943 528.159 282.868C525.926 278.955 524.837 274.498 525.012 270.002C525.006 268.263 525.118 266.527 525.345 264.804C525.901 260.896 527.714 254.702 535.489 254.702C537.816 254.63 540.104 255.316 542.004 256.656C545.706 259.79 545.706 265.688 545.706 270.702V275.716H542.004V269.412C542.081 267.872 542.006 266.329 541.782 264.804C541.777 263.99 541.61 263.186 541.29 262.438C540.969 261.691 540.503 261.014 539.917 260.447C539.331 259.881 538.638 259.437 537.877 259.14C537.117 258.844 536.305 258.701 535.489 258.721C534.087 258.683 532.711 259.097 531.565 259.9C529.825 261.264 528.825 264.029 528.825 269.117C528.578 274.238 530.299 279.26 533.638 283.162C534.822 284.932 536.081 286.591 537.34 288.361C539.367 290.708 541.258 293.17 543.004 295.734C545.649 299.779 546.944 304.552 546.706 309.374C546.991 313.254 546.344 317.147 544.818 320.728Z" fill="#F2F2F2"/>
<path d="M253.806 70.892H269.318C270.576 70.892 272.168 70.892 272.649 71.703C273.232 73.2943 273.472 74.9901 273.353 76.6799V95.6655C273.353 102.486 271.983 105.951 269.318 105.951H255.917C251.989 105.951 248.223 107.505 245.446 110.27C242.669 113.035 241.109 116.786 241.109 120.697V227.606C241.153 228.672 240.983 229.736 240.609 230.736C240.235 231.735 239.663 232.65 238.928 233.426C238.194 234.203 237.311 234.825 236.331 235.256C235.351 235.687 234.295 235.919 233.224 235.938H169.254C168.199 235.933 167.155 235.721 166.182 235.315C165.209 234.908 164.327 234.315 163.584 233.569C162.842 232.823 162.254 231.938 161.855 230.966C161.455 229.993 161.253 228.952 161.257 227.901V8.03664C161.253 6.98609 161.455 5.94487 161.855 4.97244C162.254 4 162.842 3.1154 163.584 2.36912C164.327 1.62285 165.209 1.02953 166.182 0.623032C167.155 0.216537 168.199 0.00483008 169.254 0L269.207 0C271.095 0 273.242 0 273.242 8.03664V34.3585C273.242 42.3951 271.095 42.3951 269.207 42.3951H253.806C245.699 42.3951 238.999 45.6761 238.999 57.1412C239.295 70.0441 245.699 70.892 253.806 70.892Z" fill="#F2F2F2"/>
<path d="M172.215 87.4077C172.296 82.9304 170.606 78.6009 167.51 75.3528C164.415 72.1047 160.162 70.1981 155.667 70.0441H92.3269C78.0003 70.0441 75.8901 80.3664 75.8901 85.6013V153.876C76.1007 157.674 77.8105 161.235 80.6467 163.783C83.4829 166.332 87.2156 167.66 91.0312 167.479H92.623L155.89 167.147C158.088 167.13 160.26 166.659 162.267 165.764C164.274 164.87 166.073 163.571 167.551 161.949C170.691 158.558 172.412 154.101 172.363 149.489L172.215 87.4077Z" fill="#0A0A0A"/>
<path d="M166.81 90.0251C166.91 85.9982 165.412 82.0945 162.639 79.1612C159.867 76.2279 156.045 74.5017 152.002 74.3574L95.3624 74.6523C93.3919 74.6715 91.4467 75.0976 89.6498 75.9034C87.853 76.7093 86.2434 77.8775 84.9229 79.3342C82.1412 82.3489 80.6072 86.2997 80.6286 90.3938L80.8878 145.692C80.7877 149.719 82.2865 153.622 85.0588 156.556C87.8311 159.489 91.6532 161.215 95.6956 161.36L152.336 161.065C154.309 161.089 156.265 160.705 158.081 159.937C159.897 159.169 161.533 158.034 162.886 156.604C165.668 153.589 167.202 149.638 167.181 145.544L166.81 90.0251Z" fill="#0A0A0A"/>
<path d="M127.088 128.144C132.057 128.144 136.084 123.836 136.084 118.522C136.084 113.208 132.057 108.9 127.088 108.9C122.12 108.9 118.093 113.208 118.093 118.522C118.093 123.836 122.12 128.144 127.088 128.144Z" fill="#F2F2F2"/>
<path d="M-0.000248814 9.73208V217.911C-0.000248814 230.15 6.47818 236.343 14.4374 236.343H140.082C141.963 236.358 143.829 236.003 145.573 235.3C147.317 234.596 148.904 233.557 150.245 232.243C151.586 230.928 152.653 229.364 153.387 227.638C154.12 225.913 154.505 224.06 154.52 222.187V181.561C154.505 179.688 154.12 177.835 153.387 176.11C152.653 174.385 151.586 172.82 150.245 171.505C148.904 170.191 147.317 169.152 145.573 168.449C143.829 167.745 141.963 167.39 140.082 167.405H90.3646C88.4832 167.42 86.6174 167.065 84.8736 166.361C83.1298 165.658 81.5422 164.619 80.2016 163.305C78.8609 161.99 77.7934 160.426 77.0599 158.7C76.3265 156.975 75.9415 155.122 75.927 153.249V84.1263C75.9758 80.3553 77.522 76.7569 80.2275 74.118C82.933 71.479 86.5777 70.0142 90.3646 70.0437H140.082C141.963 70.0583 143.829 69.7037 145.573 69.0002C147.317 68.2966 148.904 67.2579 150.245 65.9434C151.586 64.6289 152.653 63.0642 153.387 61.3388C154.12 59.6134 154.505 57.761 154.52 55.8875V14.1559C154.505 12.2823 154.12 10.43 153.387 8.70457C152.653 6.97916 151.586 5.41452 150.245 4.09997C148.904 2.78543 147.317 1.74673 145.573 1.04319C143.829 0.339655 141.963 -0.0149487 140.082 -0.000368586H9.88399C8.5761 -0.0738802 7.26728 0.12664 6.04206 0.588239C4.81684 1.04984 3.70249 1.76225 2.77098 2.67945C1.83948 3.59665 1.11154 4.69824 0.634195 5.91305C0.15685 7.12787 -0.0592855 8.42889 -0.000248814 9.73208Z" fill="#F2F2F2"/>
<path d="M531.453 70.892H546.965C548.223 70.892 549.815 70.892 550.296 71.703C550.879 73.2943 551.119 74.9901 551 76.6799V95.6655C551 102.486 549.63 105.951 546.965 105.951H533.564C529.636 105.951 525.87 107.505 523.093 110.27C520.316 113.035 518.756 116.786 518.756 120.697V227.606C518.8 228.672 518.63 229.736 518.256 230.736C517.882 231.735 517.31 232.65 516.575 233.426C515.841 234.203 514.958 234.825 513.978 235.256C512.998 235.687 511.942 235.919 510.871 235.938H446.827C445.772 235.933 444.728 235.721 443.755 235.315C442.782 234.909 441.9 234.315 441.157 233.569C440.415 232.823 439.827 231.938 439.428 230.966C439.028 229.993 438.826 228.952 438.83 227.901V8.03664C438.826 6.97989 439.031 5.93264 439.435 4.95539C439.839 3.97813 440.433 3.09024 441.183 2.343C441.934 1.59575 442.825 1.00396 443.807 0.601812C444.788 0.199662 445.84 -0.00487973 446.901 1.42147e-06H546.854C548.742 1.42147e-06 550.889 1.33362e-06 550.889 8.03664V34.3585C550.889 42.3951 548.742 42.3951 546.854 42.3951H531.342C523.235 42.3951 516.535 45.6761 516.535 57.1412C516.942 70.0441 523.346 70.892 531.453 70.892Z" fill="#F2F2F2"/>
<path d="M449.862 87.4077C449.942 82.9304 448.253 78.6009 445.157 75.3528C442.062 72.1047 437.808 70.1981 433.314 70.0441H369.974C355.647 70.0441 353.537 80.3664 353.537 85.6013V153.876C353.748 157.674 355.457 161.235 358.294 163.783C361.13 166.332 364.863 167.66 368.678 167.479H370.27L433.537 167.147C435.735 167.13 437.907 166.659 439.914 165.764C441.921 164.87 443.72 163.571 445.198 161.949C448.338 158.558 450.059 154.101 450.01 149.489L449.862 87.4077Z" fill="#0A0A0A"/>
<path d="M444.457 90.0251C444.557 85.9982 443.059 82.0945 440.286 79.1612C437.514 76.2279 433.692 74.5017 429.649 74.3573L373.009 74.6523C371.039 74.6715 369.094 75.0976 367.297 75.9034C365.5 76.7093 363.89 77.8774 362.57 79.3342C359.788 82.3489 358.254 86.2997 358.276 90.3938L358.535 145.692C358.435 149.719 359.933 153.622 362.706 156.556C365.478 159.489 369.3 161.215 373.343 161.359L429.983 161.065C431.955 161.089 433.912 160.705 435.728 159.937C437.544 159.169 439.18 158.034 440.533 156.604C443.315 153.589 444.849 149.638 444.827 145.544L444.457 90.0251Z" fill="#0A0A0A"/>
<path d="M404.735 128.144C409.703 128.144 413.731 123.836 413.731 118.522C413.731 113.208 409.703 108.9 404.735 108.9C399.767 108.9 395.74 113.208 395.74 118.522C395.74 123.836 399.767 128.144 404.735 128.144Z" fill="#F2F2F2"/>
<path d="M277.647 9.73244V217.911C277.647 230.15 284.125 236.344 292.085 236.344H417.729C419.611 236.358 421.477 236.004 423.22 235.3C424.964 234.596 426.552 233.558 427.892 232.243C429.233 230.929 430.301 229.364 431.034 227.639C431.767 225.913 432.152 224.061 432.167 222.187V181.562C432.152 179.688 431.767 177.836 431.034 176.11C430.301 174.385 429.233 172.82 427.892 171.506C426.552 170.191 424.964 169.153 423.22 168.449C421.477 167.745 419.611 167.391 417.729 167.405H368.012C366.13 167.42 364.265 167.065 362.521 166.362C360.777 165.658 359.189 164.62 357.849 163.305C356.508 161.991 355.441 160.426 354.707 158.7C353.974 156.975 353.589 155.123 353.574 153.249V84.1267C353.623 80.3557 355.169 76.7573 357.875 74.1183C360.58 71.4794 364.225 70.0146 368.012 70.0441H417.729C419.611 70.0587 421.477 69.7041 423.22 69.0005C424.964 68.297 426.552 67.2583 427.892 65.9438C429.233 64.6292 430.301 63.0646 431.034 61.3392C431.767 59.6138 432.152 57.7614 432.167 55.8878V14.1563C432.152 12.2827 431.767 10.4303 431.034 8.70493C430.301 6.97953 429.233 5.41488 427.892 4.10034C426.552 2.7858 424.964 1.7471 423.22 1.04356C421.477 0.340021 419.611 -0.0145825 417.729 -2.37487e-06H287.531C286.223 -0.073514 284.915 0.127006 283.689 0.588605C282.464 1.0502 281.35 1.76262 280.418 2.67982C279.487 3.59702 278.759 4.69861 278.281 5.91342C277.804 7.12824 277.588 8.42926 277.647 9.73244Z" fill="#F2F2F2"/>
</g>
<defs>
<clipPath id="clip0_906_44">
<rect width="551" height="326" fill="white"/>
</clipPath>
</defs>
</svg>
