<svg width="26" height="26" viewBox="0 0 26 26" fill="none" xmlns="http://www.w3.org/2000/svg">
<rect x="0.5" y="0.942383" width="25" height="25" rx="3" fill="#F2F2F2"/>
<path fill-rule="evenodd" clip-rule="evenodd" d="M11.1152 13.0018C10.6455 12.6355 10.2729 12.3722 10.1932 11.6124H10.1447C10.0275 11.6123 9.91224 11.5857 9.81025 11.5352C9.64259 11.4439 9.51361 11.3073 9.44286 11.1462C9.26956 10.8057 9.13959 9.90969 9.5659 9.65391L9.48618 9.6085V9.50861C9.45152 9.32851 9.45152 9.11056 9.45152 8.88202C9.43593 8.04051 9.41686 7.02041 8.64223 6.81609L8.3095 6.72831L8.52785 6.49069C9.10016 5.85725 9.75046 5.28067 10.467 4.77135C11.2139 4.25676 11.9713 3.91622 12.7199 3.81784C13.1058 3.76384 13.5005 3.7835 13.8768 3.87547C14.2531 3.96744 14.6022 4.12953 14.9 4.35059C15.1147 4.50434 15.3109 4.67676 15.4857 4.86519C15.8326 4.89816 16.1676 4.99443 16.4691 5.14774C16.7706 5.30104 17.0319 5.50798 17.236 5.75513C17.4934 6.05741 17.6859 6.39789 17.8044 6.76009C17.9286 7.12924 17.9807 7.51399 17.9586 7.89825C17.9344 8.59148 17.6099 9.25087 17.0506 9.74321C17.1489 9.7449 17.2455 9.76613 17.333 9.80526C17.6554 9.95661 17.6658 10.285 17.5809 10.562C17.4977 10.7905 17.3902 11.0584 17.2897 11.2824C17.1684 11.5851 16.9899 11.6411 16.6433 11.6078C16.626 12.3555 16.2309 12.5613 15.6989 13.0003C15.3939 14.2565 11.5397 14.0885 11.1152 13.0003V13.0018ZM11.6195 21.1066C11.3223 21.1703 11.0174 21.2023 10.7114 21.2019C10.4658 21.2125 10.2208 21.1731 9.99567 21.0869C9.823 21.0037 9.69385 20.8654 9.63522 20.701C9.54965 20.4487 9.51218 20.1859 9.52431 19.923C9.52431 19.4387 9.60922 19.1057 9.78079 18.9271C9.95235 18.7485 10.2799 18.6593 10.7616 18.6593C11.0012 18.6638 11.2396 18.6881 11.4739 18.7319L11.6195 18.7576L11.5935 19.4115C11.3836 19.3883 11.1724 19.3762 10.9609 19.3751C10.7668 19.3751 10.6421 19.4069 10.5866 19.472C10.5156 19.5955 10.4862 19.734 10.5017 19.8716C10.4953 20.0127 10.5087 20.154 10.5416 20.2923C10.5499 20.3239 10.5656 20.3536 10.5877 20.3796C10.6097 20.4057 10.6377 20.4275 10.6698 20.4437C10.7595 20.4767 10.857 20.4902 10.954 20.483L11.6073 20.4603L11.6195 21.1036V21.1066ZM12.122 21.1535V18.7062H14.2224V19.2858H13.0907V19.5885H13.9694V20.2575H13.0907V20.5738H14.2206V21.152L12.122 21.1535ZM15.6209 19.9306C15.6101 20.0844 15.6336 20.2386 15.6902 20.3846C15.7219 20.4258 15.7647 20.4596 15.8149 20.483C15.8651 20.5063 15.921 20.5185 15.9779 20.5185C16.0347 20.5185 16.0907 20.5063 16.1408 20.483C16.191 20.4596 16.2338 20.4258 16.2655 20.3846C16.3187 20.238 16.341 20.0842 16.3314 19.9306C16.3421 19.7771 16.3203 19.6232 16.2673 19.4765C16.2418 19.4308 16.2005 19.3933 16.1491 19.3694C16.0977 19.3454 16.039 19.3363 15.9813 19.3434C15.9226 19.3365 15.8628 19.346 15.8106 19.3704C15.7583 19.3949 15.7162 19.4331 15.6902 19.4796C15.6335 19.6255 15.61 19.7798 15.6209 19.9336V19.9306ZM17.3105 19.9306C17.3105 20.3756 17.2048 20.6989 16.9934 20.9007C16.782 21.102 16.4423 21.2035 15.9779 21.2035C15.5134 21.2035 15.1755 21.102 14.9624 20.9007C14.7492 20.6995 14.6504 20.3725 14.6504 19.9291C14.6504 19.4856 14.7561 19.1617 14.9693 18.9604C15.1824 18.7591 15.5186 18.6577 15.9848 18.6577C16.451 18.6577 16.7906 18.7576 17.002 18.9604C17.2135 19.1632 17.3192 19.4841 17.3192 19.9306H17.3105ZM10.7755 13.9886L12.2399 17.344L12.9746 15.5157L12.6142 15.1706C12.3438 14.8255 12.4409 14.432 12.9382 14.3609C13.1191 14.3457 13.301 14.3426 13.4824 14.3518C13.6819 14.3408 13.8822 14.3474 14.0803 14.3715C14.5464 14.4623 14.6002 14.8573 14.3627 15.1706L14.0023 15.5157L14.7388 17.344L16.0628 13.9886C17.0176 14.7453 20.3813 14.8967 21.435 15.4022C22.5822 15.9637 22.8006 16.2982 22.9946 17.0368C23.0875 17.3115 23.1233 17.5986 23.1004 17.8843V21.8194C23.0981 21.971 23.0282 22.1157 22.9055 22.2229C22.7828 22.33 22.6171 22.3911 22.4436 22.3931H4.393C4.30585 22.3931 4.21957 22.378 4.13912 22.3487C4.05867 22.3195 3.98566 22.2766 3.92428 22.2226C3.8629 22.1685 3.81437 22.1044 3.7815 22.0339C3.74862 21.9635 3.73205 21.888 3.73274 21.8119V18.2778C3.73274 17.5408 3.68595 17.3849 3.94763 16.6887C4.13999 16.1756 4.45712 15.8593 5.40158 15.4022C6.69438 14.7741 9.7132 14.821 10.7738 13.9886H10.7755ZM22.3153 18.075H4.52124V21.6953H22.3153V18.0796V18.075Z" fill="#0A0A0A"/>
</svg>
