<svg width="25" height="25" viewBox="0 0 25 25" fill="none" xmlns="http://www.w3.org/2000/svg">
<g clip-path="url(#clip0_885_126)">
<path fill-rule="evenodd" clip-rule="evenodd" d="M13.5392 11.2279V11.1914C13.5315 11.2037 13.5209 11.2159 13.5142 11.2279H13.5392Z" fill="#F2F2F2"/>
<path fill-rule="evenodd" clip-rule="evenodd" d="M0 0V25H25V0H0ZM7.77593 20.7693H4.06681V9.61022H7.77593V20.7693ZM5.92137 8.08714H5.89687C4.65264 8.08714 3.84615 7.22995 3.84615 6.15852C3.84615 5.06357 4.67621 4.23066 5.94566 4.23066C7.21538 4.23066 7.99566 5.06357 8.01994 6.15852C8.01994 7.22995 7.21538 8.08714 5.92137 8.08714ZM21.1538 20.7693H17.4437V14.7992C17.4437 13.2997 16.9077 12.2761 15.5649 12.2761C14.5394 12.2761 13.93 12.9653 13.6615 13.6329C13.564 13.8713 13.5385 14.2028 13.5385 14.5372V20.7694H9.82764C9.82764 20.7694 9.87736 10.6571 9.82764 9.61027H13.5385V11.1915C14.0315 10.4329 14.9113 9.3483 16.8822 9.3483C19.3238 9.3483 21.1538 10.9428 21.1538 14.3702V20.7693Z" fill="#F2F2F2"/>
</g>
<defs>
<clipPath id="clip0_885_126">
<rect width="25" height="25" rx="3" fill="white"/>
</clipPath>
</defs>
</svg>
