<svg width="26" height="26" viewBox="0 0 26 26" fill="none" xmlns="http://www.w3.org/2000/svg">
<rect x="0.5" y="0.214844" width="25" height="25" rx="3" fill="#F2F2F2"/>
<path fill-rule="evenodd" clip-rule="evenodd" d="M9.74934 11.1096C10.8306 12.9649 12.2453 14.6803 14.8619 15.9513C15.2545 16.1433 15.612 15.9513 15.9191 15.6487C16.3753 15.2187 17.0157 14 17.7812 14.3401L20.6324 15.9053C21.2159 16.281 21.0426 17.1575 20.6324 17.8337C20.0688 18.7811 18.9283 19.0858 17.8513 19.2444C16.2086 19.4802 14.7347 18.9502 12.9537 17.8984C12.5151 17.6458 12.0567 17.3745 11.5961 17.0448C8.67683 14.9579 5.67422 11.1597 6.23131 7.79973C6.47477 6.30549 7.51219 5.08046 9.54537 5.25368L11.3702 8.21085C11.743 8.65328 11.4689 9.0644 10.9008 9.463C10.3328 9.86161 9.39842 10.3312 9.74934 11.1179V11.1096Z" fill="#0A0A0A"/>
</svg>
