<svg width="25" height="25" viewBox="0 0 25 25" fill="none" xmlns="http://www.w3.org/2000/svg">
<g clip-path="url(#clip0_885_128)">
<path fill-rule="evenodd" clip-rule="evenodd" d="M0 0V25H25V0H0ZM19.3819 8.97027C19.3887 9.12264 19.3921 9.27582 19.3921 9.42962C19.3921 14.1221 15.8206 19.5327 9.28923 19.5327C7.28396 19.5327 5.41747 18.9449 3.8461 17.9373C4.1239 17.9703 4.40648 17.9871 4.69319 17.9871C6.35681 17.9871 7.88786 17.4195 9.10319 16.4669C7.54934 16.4384 6.23791 15.4117 5.78599 14.0009C6.00291 14.0425 6.22538 14.0648 6.45418 14.0648C6.77802 14.0648 7.09176 14.0212 7.38973 13.9402C5.76538 13.6139 4.54132 12.1788 4.54132 10.4585C4.54132 10.4435 4.54132 10.4286 4.54165 10.4137C5.02033 10.6797 5.5678 10.8395 6.14995 10.8579C5.19709 10.2212 4.57038 9.13423 4.57038 7.90242C4.57038 7.25159 4.74549 6.6417 5.05121 6.11714C6.80247 8.26555 9.41896 9.67912 12.3701 9.82736C12.3095 9.56736 12.2779 9.29632 12.2779 9.01808C12.2779 7.0572 13.8679 5.46736 15.8288 5.46736C16.8502 5.46736 17.773 5.89852 18.4207 6.58857C19.2295 6.42951 19.9895 6.13385 20.6756 5.72698C20.4105 6.55621 19.8475 7.25192 19.1143 7.69148C19.8326 7.6056 20.5169 7.41467 21.1537 7.13225C20.6778 7.84429 20.0758 8.46973 19.3819 8.97027Z" fill="#F2F2F2"/>
</g>
<defs>
<clipPath id="clip0_885_128">
<rect width="25" height="25" rx="3" fill="white"/>
</clipPath>
</defs>
</svg>
