<svg width="72" height="42" viewBox="0 0 72 42" fill="none" xmlns="http://www.w3.org/2000/svg">
<path d="M3.02431 40.9349C2.90647 41.1446 2.72931 41.3172 2.51377 41.4322C2.29824 41.5473 2.05333 41.5999 1.80799 41.584C1.52206 41.5979 1.23783 41.5337 0.987571 41.3985C0.902212 41.3373 0.823856 41.2673 0.753847 41.1899C0.587582 41.0091 0.466755 40.7932 0.400876 40.5594C0.33812 40.3296 0.310792 40.0922 0.319788 39.8546V38.6168H0.796776V39.3215C0.796776 39.5069 0.796776 39.6785 0.796776 39.8639C0.796776 40.2812 0.930333 41.074 1.85092 41.074C2.03664 41.0785 2.21837 41.0212 2.36607 40.9117C2.61887 40.7263 2.76197 40.3554 2.76197 39.6414C2.7897 39.2114 2.70262 38.7818 2.50916 38.3942C2.27906 37.9943 2.00734 37.6183 1.69828 37.2723C1.40125 36.9226 1.13329 36.5505 0.896943 36.1596C0.609312 35.6675 0.468884 35.1071 0.491503 34.5416C0.490882 34.323 0.505223 34.1046 0.534432 33.8879C0.605981 33.3964 0.839705 32.6175 1.84138 32.6175C2.14127 32.6085 2.43601 32.6947 2.68088 32.8632C3.15787 33.2573 3.15787 33.9991 3.15787 34.6296V35.2602H2.68088V34.4813C2.6906 34.2877 2.68101 34.0936 2.65226 33.9018C2.65166 33.7995 2.63009 33.6984 2.58883 33.6043C2.54757 33.5103 2.48744 33.4251 2.41194 33.3539C2.33645 33.2827 2.24711 33.2268 2.14915 33.1895C2.05118 33.1523 1.94655 33.1343 1.84138 33.1368C1.66081 33.1321 1.4835 33.1841 1.33577 33.2851C1.11159 33.4567 0.982801 33.8044 0.982801 34.4442C0.950964 35.0882 1.17269 35.7198 1.60289 36.2106C1.75552 36.4331 1.9177 36.6418 2.07987 36.8643C2.34104 37.1597 2.5847 37.4692 2.80967 37.7915C3.15017 38.3004 3.31706 38.9006 3.28665 39.5069C3.31747 39.9964 3.22753 40.486 3.02431 40.9349V40.9349Z" fill="#F2F2F2"/>
<path d="M13.2748 33.2852V41.4495H12.7644V33.2852H11.5051V32.7427H14.5292V33.2852H13.2748Z" fill="#F2F2F2"/>
<path d="M25.7002 40.6011C25.6306 40.8882 25.4621 41.1437 25.2226 41.325C24.9832 41.5063 24.6872 41.6026 24.3837 41.5979C24.0531 41.6017 23.7324 41.488 23.4822 41.278C23.3893 41.1987 23.3132 41.1027 23.258 40.9952C23.0101 40.497 22.9109 39.9412 22.9718 39.391V32.7427H23.4488V39.4884C23.4145 39.8619 23.47 40.2381 23.6109 40.5872C23.6773 40.6998 23.7684 40.7969 23.8776 40.8716C23.9869 40.9462 24.1117 40.9966 24.2432 41.0192C24.3748 41.0417 24.5098 41.0359 24.6387 41.0021C24.7677 40.9683 24.8874 40.9074 24.9894 40.8236C25.3233 40.5176 25.3138 40.0447 25.3138 39.1453V32.7427H25.7908V39.7248C25.8022 40.0196 25.7717 40.3144 25.7002 40.6011Z" fill="#F2F2F2"/>
<path d="M37.6012 39.0201C37.6365 39.7114 37.4128 40.3917 36.9716 40.9349C36.7809 41.1477 36.5357 41.3076 36.2609 41.3985C36.0762 41.4493 35.8851 41.4743 35.6932 41.4727H34.7393V32.7427H35.3546C36.0033 32.7427 36.652 32.803 37.1099 33.4567C37.5058 34.0362 37.5869 34.8476 37.5869 36.308V38.2459C37.6107 38.5009 37.6107 38.7512 37.6012 39.0201ZM37.1242 36.2941C37.164 35.55 37.0786 34.8046 36.8714 34.0872C36.8045 33.9267 36.7044 33.7813 36.5772 33.6601C36.45 33.5388 36.2985 33.4443 36.1321 33.3825C35.9676 33.3341 35.7979 33.3046 35.6265 33.2944H35.2496V40.9071H35.6551C35.9776 40.9227 36.2939 40.8164 36.5375 40.6104C37.0145 40.2024 37.1242 39.5626 37.1242 38.2923V36.2941Z" fill="#F2F2F2"/>
<path d="M46.4968 41.4495V32.7427H47.0163V41.4495H46.4968Z" fill="#F2F2F2"/>
<path d="M58.5886 40.8097C58.4782 41.0144 58.317 41.1892 58.1196 41.3181C57.9222 41.447 57.6949 41.5261 57.4581 41.5482C57.2214 41.5703 56.9827 41.5347 56.7637 41.4446C56.5447 41.3545 56.3522 41.2128 56.2037 41.0322C55.9563 40.5918 55.8469 40.0906 55.8889 39.5904V34.676C55.8846 34.3438 55.9214 34.0122 55.9986 33.6885C56.0626 33.3848 56.2353 33.113 56.4858 32.9212C56.7364 32.7294 57.0488 32.63 57.3676 32.6407C57.702 32.6309 58.0278 32.7453 58.2786 32.9606C58.7842 33.4242 58.7842 34.1799 58.7842 34.8615V39.6738C58.8127 40.0622 58.7457 40.4515 58.5886 40.8097V40.8097ZM58.3263 35.1953C58.3663 34.6992 58.308 34.2003 58.1546 33.7256C58.0953 33.5588 57.9814 33.4155 57.8302 33.3176C57.6885 33.2278 57.5224 33.181 57.3532 33.1832C57.1539 33.1819 56.9602 33.2474 56.8047 33.3686C56.6553 33.5272 56.5414 33.7141 56.47 33.9175C56.3985 34.121 56.3712 34.3366 56.3897 34.5508V39.3539C56.3737 39.6851 56.4009 40.0169 56.4708 40.3415C56.5257 40.532 56.6419 40.7005 56.8024 40.8223C56.9629 40.9441 57.1592 41.0128 57.3628 41.0183C57.5697 41.0224 57.77 40.9475 57.9209 40.8097C58.0874 40.6199 58.2098 40.3973 58.2798 40.1573C58.3498 39.9173 58.3656 39.6654 58.3263 39.4189V35.1953Z" fill="#F2F2F2"/>
<path d="M70.2558 40.9349C70.1366 41.1429 69.9589 41.3136 69.7435 41.427C69.528 41.5403 69.2838 41.5915 69.0394 41.5747C68.7544 41.5915 68.4702 41.5305 68.219 41.3985C68.1337 41.3372 68.0554 41.2673 67.9853 41.1899C67.8189 41.0092 67.698 40.7933 67.6323 40.5594C67.5696 40.3297 67.5422 40.0922 67.5512 39.8547V38.6168H68.0282V39.3215C68.0282 39.507 68.0282 39.6785 68.0282 39.8639C68.0282 40.2812 68.1618 41.074 69.0824 41.074C69.2681 41.0785 69.4498 41.0213 69.5975 40.9117C69.8503 40.7263 69.9934 40.3554 69.9934 39.6414C70.0209 39.2115 69.9339 38.7819 69.7406 38.3943C69.5102 37.9945 69.2385 37.6186 68.9297 37.2723C68.6268 36.9277 68.3525 36.5603 68.1093 36.1735C67.8217 35.6814 67.6813 35.121 67.7039 34.5555C67.7032 34.3369 67.7175 34.1185 67.7468 33.9018C67.8183 33.4103 68.0521 32.6315 69.0537 32.6315C69.3536 32.6224 69.6484 32.7087 69.8932 32.8772C70.3702 33.2713 70.3702 34.0131 70.3702 34.6436V35.2741H69.8932V34.4813C69.9031 34.2877 69.8935 34.0936 69.8646 33.9018C69.864 33.7995 69.8425 33.6984 69.8012 33.6044C69.7599 33.5103 69.6998 33.4252 69.6243 33.3539C69.5488 33.2827 69.4595 33.2268 69.3615 33.1896C69.2635 33.1523 69.1589 33.1343 69.0537 33.1368C68.8732 33.1321 68.6959 33.1841 68.5481 33.2852C68.324 33.4567 68.1952 33.8044 68.1952 34.4442C68.1633 35.0882 68.3851 35.7198 68.8152 36.2106C68.9679 36.4332 69.1301 36.6418 69.2922 36.8643C69.5535 37.1596 69.7972 37.4692 70.022 37.7916C70.3628 38.3003 70.5298 38.9006 70.499 39.507C70.5358 39.995 70.4525 40.4845 70.2558 40.9349V40.9349Z" fill="#F2F2F2"/>
<path d="M32.7597 9.5154H34.7583C34.9204 9.5154 35.1255 9.5154 35.1875 9.61739C35.2627 9.81752 35.2935 10.0308 35.2782 10.2433V12.6309C35.2782 13.4886 35.1017 13.9244 34.7583 13.9244H33.0316C32.5255 13.9244 32.0402 14.1198 31.6824 14.4676C31.3246 14.8154 31.1236 15.2871 31.1236 15.7789V29.2239C31.1293 29.3579 31.1075 29.4917 31.0592 29.6174C31.011 29.7431 30.9373 29.8582 30.8427 29.9558C30.748 30.0534 30.6342 30.1317 30.508 30.1859C30.3817 30.2402 30.2456 30.2693 30.1076 30.2717H21.8653C21.7293 30.2711 21.5949 30.2445 21.4695 30.1933C21.3442 30.1422 21.2304 30.0676 21.1348 29.9737C21.0391 29.8799 20.9634 29.7686 20.9119 29.6463C20.8605 29.5241 20.8343 29.3931 20.835 29.261V1.61067C20.8343 1.47855 20.8605 1.34761 20.9119 1.22531C20.9634 1.10302 21.0391 0.99177 21.1348 0.897918C21.2304 0.804066 21.3442 0.729449 21.4695 0.678328C21.5949 0.627207 21.7293 0.600583 21.8653 0.599976L34.7439 0.599976C34.9872 0.599976 35.2639 0.599976 35.2639 1.61067V4.92092C35.2639 5.93161 34.9872 5.93161 34.7439 5.93161H32.7597C31.7151 5.93161 30.8517 6.34423 30.8517 7.78609C30.8899 9.40876 31.7151 9.5154 32.7597 9.5154Z" fill="#F2F2F2"/>
<path d="M22.2469 11.5924C22.2573 11.0293 22.0396 10.4848 21.6407 10.0764C21.2419 9.66787 20.6938 9.42809 20.1148 9.40872H11.9535C10.1076 9.40872 9.83569 10.7069 9.83569 11.3652V19.9515C9.86283 20.4291 10.0831 20.877 10.4486 21.1974C10.814 21.5179 11.2949 21.685 11.7866 21.6622H11.9917L20.1434 21.6205C20.4267 21.6183 20.7065 21.5591 20.9651 21.4466C21.2237 21.3341 21.4555 21.1707 21.6459 20.9668C22.0505 20.5403 22.2723 19.9798 22.266 19.3997L22.2469 11.5924Z" fill="#0A0A0A"/>
<path d="M21.5506 11.9215C21.5635 11.4151 21.3704 10.9242 21.0132 10.5553C20.656 10.1864 20.1635 9.96931 19.6426 9.95116L12.3447 9.98825C12.0908 9.99067 11.8402 10.0442 11.6087 10.1456C11.3772 10.2469 11.1698 10.3938 10.9996 10.577C10.6412 10.9562 10.4436 11.453 10.4463 11.9679L10.4797 18.9222C10.4668 19.4286 10.6599 19.9196 11.0171 20.2885C11.3743 20.6574 11.8668 20.8744 12.3877 20.8926V20.8926L19.6856 20.8555C19.9398 20.8586 20.1919 20.8103 20.4259 20.7137C20.6599 20.6171 20.8707 20.4744 21.045 20.2945C21.4034 19.9154 21.6011 19.4185 21.5983 18.9037L21.5506 11.9215Z" fill="#0A0A0A"/>
<path d="M16.4323 16.7154C17.0724 16.7154 17.5914 16.1736 17.5914 15.5053C17.5914 14.837 17.0724 14.2953 16.4323 14.2953C15.7921 14.2953 15.2732 14.837 15.2732 15.5053C15.2732 16.1736 15.7921 16.7154 16.4323 16.7154Z" fill="#F2F2F2"/>
<path d="M0.0573786 1.82386V28.0045C0.0573786 29.5437 0.892108 30.3226 1.91763 30.3226H18.1066C18.349 30.3244 18.5894 30.2798 18.8141 30.1914C19.0388 30.1029 19.2434 29.9723 19.4161 29.8069C19.5888 29.6416 19.7264 29.4449 19.8209 29.2279C19.9154 29.0109 19.965 28.7779 19.9669 28.5423V23.4332C19.965 23.1976 19.9154 22.9646 19.8209 22.7476C19.7264 22.5307 19.5888 22.3339 19.4161 22.1686C19.2434 22.0032 19.0388 21.8726 18.8141 21.7841C18.5894 21.6957 18.349 21.6511 18.1066 21.6529H11.7007C11.4582 21.6547 11.2178 21.6101 10.9931 21.5217C10.7685 21.4332 10.5639 21.3026 10.3912 21.1372C10.2184 20.9719 10.0809 20.7752 9.98638 20.5582C9.89188 20.3412 9.84228 20.1082 9.84041 19.8726V11.1797C9.8467 10.7055 10.0459 10.2529 10.3945 9.92107C10.7431 9.58919 11.2127 9.40497 11.7007 9.40869H18.1066C18.349 9.41052 18.5894 9.36593 18.8141 9.27745C19.0388 9.18897 19.2434 9.05835 19.4161 8.89303C19.5888 8.72771 19.7264 8.53094 19.8209 8.31395C19.9154 8.09696 19.965 7.86401 19.9669 7.62839V2.3802C19.965 2.14458 19.9154 1.91163 19.8209 1.69464C19.7264 1.47765 19.5888 1.28088 19.4161 1.11556C19.2434 0.950245 19.0388 0.819618 18.8141 0.731141C18.5894 0.642663 18.349 0.598068 18.1066 0.599902H1.33094C1.16242 0.590657 0.99378 0.615874 0.835914 0.673925C0.678048 0.731976 0.534467 0.82157 0.414445 0.936917C0.294423 1.05226 0.20063 1.1908 0.139125 1.34358C0.0776203 1.49635 0.0497718 1.65997 0.0573786 1.82386V1.82386Z" fill="#F2F2F2"/>
<path d="M68.5339 9.51538H70.5324C70.6946 9.51538 70.8997 9.51538 70.9617 9.61737C71.0368 9.8175 71.0677 10.0308 71.0524 10.2433V12.6309C71.0524 13.4886 70.8759 13.9244 70.5324 13.9244H68.8057C68.2997 13.9244 67.8144 14.1198 67.4566 14.4676C67.0988 14.8154 66.8978 15.2871 66.8978 15.7789V29.2239C66.9035 29.3579 66.8816 29.4917 66.8334 29.6174C66.7852 29.7431 66.7115 29.8582 66.6169 29.9558C66.5222 30.0534 66.4084 30.1316 66.2822 30.1859C66.1559 30.2401 66.0198 30.2693 65.8818 30.2717H57.6299C57.494 30.2711 57.3595 30.2444 57.2342 30.1933C57.1088 30.1422 56.9951 30.0676 56.8994 29.9737C56.8037 29.8799 56.728 29.7686 56.6766 29.6463C56.6251 29.524 56.599 29.3931 56.5996 29.261V1.61065C56.599 1.47775 56.6255 1.34605 56.6775 1.22315C56.7295 1.10025 56.8061 0.988586 56.9028 0.894612C56.9995 0.800638 57.1143 0.726215 57.2408 0.67564C57.3672 0.625065 57.5027 0.599342 57.6395 0.599956H70.5181C70.7614 0.599956 71.038 0.599956 71.038 1.61065V4.9209C71.038 5.93159 70.7614 5.93159 70.5181 5.93159H68.5196C67.4749 5.93159 66.6116 6.34421 66.6116 7.78607C66.6641 9.40874 67.4893 9.51538 68.5339 9.51538Z" fill="#F2F2F2"/>
<path d="M58.0211 11.5924C58.0314 11.0293 57.8137 10.4848 57.4149 10.0763C57.016 9.66785 56.468 9.42808 55.889 9.40871H47.7277C45.8817 9.40871 45.6099 10.7068 45.6099 11.3652V19.9514C45.637 20.4291 45.8573 20.877 46.2227 21.1974C46.5882 21.5179 47.0691 21.6849 47.5607 21.6622H47.7658L55.9176 21.6205C56.2009 21.6183 56.4807 21.5591 56.7393 21.4466C56.9979 21.334 57.2297 21.1707 57.4201 20.9668C57.8247 20.5403 58.0464 19.9798 58.0402 19.3997L58.0211 11.5924Z" fill="#0A0A0A"/>
<path d="M57.3248 11.9215C57.3377 11.4151 57.1446 10.9242 56.7874 10.5553C56.4301 10.1864 55.9377 9.9693 55.4168 9.95114V9.95114L48.1189 9.98823C47.865 9.99065 47.6144 10.0442 47.3828 10.1456C47.1513 10.2469 46.9439 10.3938 46.7738 10.577C46.4154 10.9562 46.2177 11.453 46.2205 11.9679L46.2539 18.9222C46.241 19.4286 46.4341 19.9196 46.7913 20.2885C47.1485 20.6573 47.641 20.8744 48.1618 20.8926V20.8926L55.4597 20.8555C55.7139 20.8585 55.966 20.8102 56.2 20.7137C56.434 20.6171 56.6449 20.4744 56.8192 20.2945C57.1776 19.9154 57.3752 19.4185 57.3725 18.9037L57.3248 11.9215Z" fill="#0A0A0A"/>
<path d="M52.2067 16.7154C52.8468 16.7154 53.3658 16.1736 53.3658 15.5053C53.3658 14.837 52.8468 14.2953 52.2067 14.2953C51.5665 14.2953 51.0476 14.837 51.0476 15.5053C51.0476 16.1736 51.5665 16.7154 52.2067 16.7154Z" fill="#F2F2F2"/>
<path d="M35.8315 1.82387V28.0045C35.8315 29.5437 36.6663 30.3226 37.6918 30.3226H53.8808C54.1232 30.3245 54.3636 30.2799 54.5883 30.1914C54.813 30.1029 55.0175 29.9723 55.1903 29.807C55.363 29.6416 55.5006 29.4449 55.5951 29.2279C55.6896 29.0109 55.7392 28.7779 55.741 28.5423V23.4332C55.7392 23.1976 55.6896 22.9646 55.5951 22.7477C55.5006 22.5307 55.363 22.3339 55.1903 22.1686C55.0175 22.0033 54.813 21.8726 54.5883 21.7842C54.3636 21.6957 54.1232 21.6511 53.8808 21.6529H47.4748C47.2324 21.6548 46.992 21.6102 46.7673 21.5217C46.5426 21.4332 46.3381 21.3026 46.1653 21.1373C45.9926 20.9719 45.8551 20.7752 45.7605 20.5582C45.666 20.3412 45.6164 20.1082 45.6146 19.8726V11.1797C45.6209 10.7055 45.8201 10.253 46.1687 9.92108C46.5173 9.58921 46.9869 9.40499 47.4748 9.40871H53.8808C54.1232 9.41054 54.3636 9.36594 54.5883 9.27747C54.813 9.18899 55.0175 9.05836 55.1903 8.89304C55.363 8.72773 55.5006 8.53096 55.5951 8.31397C55.6896 8.09698 55.7392 7.86402 55.741 7.6284V2.38022C55.7392 2.1446 55.6896 1.91164 55.5951 1.69465C55.5006 1.47767 55.363 1.2809 55.1903 1.11558C55.0175 0.950261 54.813 0.819634 54.5883 0.731156C54.3636 0.642679 54.1232 0.598083 53.8808 0.599917H37.1051C36.9366 0.590672 36.768 0.61589 36.6101 0.673941C36.4522 0.731992 36.3086 0.821585 36.1886 0.936932C36.0686 1.05228 35.9748 1.19082 35.9133 1.34359C35.8518 1.49637 35.8239 1.65999 35.8315 1.82387V1.82387Z" fill="#F2F2F2"/>
</svg>
