<svg width="71" height="41" viewBox="0 0 71 41" fill="none" xmlns="http://www.w3.org/2000/svg">
<path d="M2.96816 40.3369C2.85032 40.5466 2.67316 40.7192 2.45762 40.8342C2.24208 40.9492 1.99718 41.0019 1.75184 40.9859C1.46591 40.9999 1.18168 40.9356 0.931419 40.8005C0.84606 40.7393 0.767704 40.6693 0.697695 40.5919C0.531429 40.4111 0.410603 40.1952 0.344723 39.9613C0.281967 39.7316 0.25464 39.4941 0.263635 39.2566V38.0188H0.740623V38.7235C0.740623 38.9089 0.740623 39.0804 0.740623 39.2659C0.740623 39.6832 0.87418 40.4759 1.79477 40.4759C1.98048 40.4805 2.16222 40.4232 2.30991 40.3137C2.56272 40.1282 2.70581 39.7573 2.70581 39.0434C2.73355 38.6134 2.64647 38.1838 2.45301 37.7962C2.22291 37.3963 1.95119 37.0203 1.64213 36.6743C1.3451 36.3246 1.07714 35.9525 0.840791 35.5616C0.55316 35.0695 0.412732 34.5091 0.435351 33.9435C0.43473 33.7249 0.449071 33.5066 0.47828 33.2898C0.549828 32.7984 0.783552 32.0195 1.78523 32.0195C2.08512 32.0104 2.37986 32.0967 2.62473 32.2652C3.10171 32.6593 3.10171 33.4011 3.10171 34.0316V34.6621H2.62473V33.8833C2.63445 33.6896 2.62486 33.4956 2.59611 33.3037C2.5955 33.2015 2.57394 33.1004 2.53268 33.0063C2.49142 32.9122 2.43128 32.8271 2.35579 32.7559C2.2803 32.6847 2.19096 32.6288 2.09299 32.5915C1.99503 32.5542 1.8904 32.5363 1.78523 32.5388C1.60466 32.5341 1.42735 32.5861 1.27962 32.6871C1.05544 32.8587 0.926649 33.2064 0.926649 33.8462C0.894812 34.4902 1.11654 35.1218 1.54673 35.6126C1.69937 35.8351 1.86155 36.0437 2.02372 36.2663C2.28489 36.5616 2.52854 36.8712 2.75351 37.1935C3.09401 37.7024 3.26091 38.3026 3.2305 38.9089C3.26132 39.3984 3.17138 39.888 2.96816 40.3369Z" fill="#F2F2F2"/>
<path d="M13.2186 32.6871V40.8515H12.7082V32.6871H11.449V32.1447H14.4731V32.6871H13.2186Z" fill="#F2F2F2"/>
<path d="M25.644 40.003C25.5744 40.2902 25.4059 40.5456 25.1665 40.7269C24.927 40.9082 24.631 41.0045 24.3275 40.9998C23.9969 41.0037 23.6763 40.8899 23.426 40.6799C23.3331 40.6007 23.257 40.5046 23.2018 40.3971C22.9539 39.899 22.8548 39.3432 22.9156 38.793V32.1447H23.3926V38.8904C23.3584 39.2639 23.4139 39.64 23.5548 39.9891C23.6212 40.1018 23.7122 40.1989 23.8215 40.2735C23.9307 40.3482 24.0555 40.3986 24.1871 40.4211C24.3186 40.4437 24.4536 40.4379 24.5826 40.4041C24.7115 40.3703 24.8313 40.3094 24.9333 40.2256C25.2672 39.9196 25.2576 39.4467 25.2576 38.5473V32.1447H25.7346V39.1268C25.746 39.4215 25.7155 39.7164 25.644 40.003Z" fill="#F2F2F2"/>
<path d="M37.545 38.4221C37.5804 39.1134 37.3567 39.7937 36.9154 40.3369C36.7247 40.5496 36.4795 40.7096 36.2047 40.8005C36.0201 40.8513 35.829 40.8763 35.6371 40.8747H34.6831V32.1447H35.2984C35.9471 32.1447 36.5958 32.205 37.0537 32.8587C37.4496 33.4382 37.5307 34.2495 37.5307 35.7099V37.6479C37.5546 37.9028 37.5546 38.1532 37.545 38.4221ZM37.068 35.696C37.1079 34.9519 37.0225 34.2065 36.8152 33.4892C36.7484 33.3287 36.6482 33.1833 36.521 33.062C36.3938 32.9408 36.2423 32.8463 36.0759 32.7845C35.9115 32.7361 35.7418 32.7065 35.5703 32.6964H35.1935V40.309H35.5989C35.9215 40.3247 36.2377 40.2183 36.4814 40.0123C36.9583 39.6043 37.068 38.9645 37.068 37.6942V35.696Z" fill="#F2F2F2"/>
<path d="M46.4407 40.8515V32.1447H46.9601V40.8515H46.4407Z" fill="#F2F2F2"/>
<path d="M58.5325 40.2117C58.422 40.4164 58.2608 40.5911 58.0634 40.7201C57.866 40.849 57.6387 40.9281 57.402 40.9502C57.1652 40.9723 56.9266 40.9367 56.7075 40.8466C56.4885 40.7565 56.2961 40.6148 56.1475 40.4342C55.9002 39.9937 55.7908 39.4925 55.8327 38.9924V34.078C55.8284 33.7457 55.8653 33.4142 55.9424 33.0905C56.0065 32.7868 56.1791 32.5149 56.4297 32.3231C56.6803 32.1313 56.9926 32.032 57.3114 32.0427C57.6459 32.0329 57.9716 32.1473 58.2224 32.3626C58.7281 32.8262 58.7281 33.5819 58.7281 34.2634V39.0758C58.7565 39.4641 58.6895 39.8535 58.5325 40.2117ZM58.2701 34.5972C58.3101 34.1012 58.2519 33.6023 58.0984 33.1276C58.0391 32.9607 57.9252 32.8174 57.7741 32.7196C57.6323 32.6298 57.4663 32.583 57.2971 32.5851C57.0978 32.5839 56.9041 32.6494 56.7486 32.7706C56.5992 32.9291 56.4852 33.116 56.4138 33.3195C56.3424 33.5229 56.3151 33.7386 56.3336 33.9528V38.7559C56.3175 39.0871 56.3447 39.4189 56.4147 39.7434C56.4696 39.934 56.5857 40.1025 56.7462 40.2243C56.9067 40.3461 57.1031 40.4148 57.3066 40.4203C57.5136 40.4243 57.7139 40.3494 57.8647 40.2117C58.0313 40.0218 58.1537 39.7993 58.2237 39.5593C58.2936 39.3192 58.3095 39.0674 58.2701 38.8208V34.5972Z" fill="#F2F2F2"/>
<path d="M70.1996 40.3369C70.0805 40.5449 69.9027 40.7156 69.6873 40.8289C69.4719 40.9422 69.2276 40.9935 68.9833 40.9767C68.6983 40.9934 68.4141 40.9324 68.1629 40.8005C68.0776 40.7392 67.9992 40.6693 67.9291 40.5919C67.7627 40.4112 67.6419 40.1953 67.5762 39.9613C67.5134 39.7316 67.4861 39.4941 67.4951 39.2566V38.0188H67.9721V38.7235C67.9721 38.9089 67.9721 39.0805 67.9721 39.2659C67.9721 39.6832 68.1056 40.476 69.0262 40.476C69.2119 40.4805 69.3937 40.4232 69.5414 40.3137C69.7942 40.1282 69.9373 39.7573 69.9373 39.0434C69.9648 38.6134 69.8777 38.1839 69.6845 37.7962C69.4541 37.3964 69.1824 37.0205 68.8736 36.6743C68.5707 36.3296 68.2964 35.9622 68.0532 35.5755C67.7655 35.0834 67.6251 34.523 67.6477 33.9575C67.647 33.7389 67.6613 33.5205 67.6906 33.3037C67.7622 32.8123 67.9959 32.0334 68.9976 32.0334C69.2975 32.0243 69.5922 32.1106 69.8371 32.2791C70.3141 32.6732 70.3141 33.415 70.3141 34.0455V34.6761H69.8371V33.8833C69.847 33.6897 69.8374 33.4956 69.8085 33.3037C69.8079 33.2015 69.7863 33.1004 69.745 33.0063C69.7038 32.9122 69.6436 32.8271 69.5682 32.7559C69.4927 32.6847 69.4033 32.6288 69.3054 32.5915C69.2074 32.5542 69.1028 32.5363 68.9976 32.5388C68.817 32.5341 68.6397 32.5861 68.492 32.6871C68.2678 32.8587 68.139 33.2064 68.139 33.8462C68.1072 34.4902 68.3289 35.1218 68.7591 35.6126C68.9117 35.8351 69.0739 36.0437 69.2361 36.2663C69.4974 36.5616 69.741 36.8712 69.9659 37.1935C70.3067 37.7023 70.4736 38.3026 70.4429 38.9089C70.4797 39.3969 70.3963 39.8864 70.1996 40.3369Z" fill="#F2F2F2"/>
<path fill-rule="evenodd" clip-rule="evenodd" d="M32.7035 8.91736H34.7021C34.8643 8.91736 35.0694 8.91736 35.1314 9.01936C35.2065 9.21948 35.2374 9.43274 35.222 9.64524V12.0329C35.222 12.8906 35.0455 13.3264 34.7021 13.3264H32.9754C32.4694 13.3264 31.9841 13.5218 31.6263 13.8696C31.2685 14.2173 31.0675 14.689 31.0675 15.1809V28.6259C31.0732 28.7599 31.0513 28.8937 31.0031 29.0194C30.9548 29.1451 30.8812 29.2601 30.7865 29.3578C30.6919 29.4554 30.5781 29.5336 30.4518 29.5879C30.3256 29.6421 30.1895 29.6713 30.0515 29.6736H21.8091C21.6732 29.673 21.5387 29.6464 21.4134 29.5953C21.288 29.5442 21.1743 29.4696 21.0786 29.3757C20.9829 29.2819 20.9072 29.1706 20.8558 29.0483C20.8043 28.926 20.7782 28.7951 20.7788 28.663V20.9C20.8227 20.8843 20.8661 20.8672 20.9089 20.8485C21.1675 20.736 21.3994 20.5727 21.5898 20.3687C21.9943 19.9423 22.2161 19.3818 22.2099 18.8017L22.1908 10.9943C22.2011 10.4313 21.9834 9.8868 21.5846 9.47831C21.3572 9.24543 21.0813 9.06738 20.7788 8.95375V1.01263C20.7782 0.880513 20.8043 0.749569 20.8558 0.627275C20.9072 0.504981 20.9829 0.393732 21.0786 0.29988C21.1743 0.206028 21.288 0.131412 21.4134 0.0802907C21.5387 0.0291696 21.6732 0.0025453 21.8091 0.00193787H34.6878C34.9311 0.00193787 35.2077 0.00193787 35.2077 1.01263V4.32288C35.2077 5.33357 34.9311 5.33357 34.6878 5.33357H32.7035C31.6589 5.33357 30.7956 5.74619 30.7956 7.18805C30.8337 8.81073 31.6589 8.91736 32.7035 8.91736Z" fill="#F2F2F2"/>
<path d="M16.3761 16.1173C17.0163 16.1173 17.5352 15.5756 17.5352 14.9073C17.5352 14.239 17.0163 13.6973 16.3761 13.6973C15.736 13.6973 15.217 14.239 15.217 14.9073C15.217 15.5756 15.736 16.1173 16.3761 16.1173Z" fill="#F2F2F2"/>
<path d="M0.00122622 1.22582V27.4065C0.00122622 28.9457 0.835955 29.7246 1.86148 29.7246H18.0505C18.2929 29.7264 18.5333 29.6818 18.758 29.5933C18.9827 29.5049 19.1872 29.3742 19.3599 29.2089C19.5327 29.0436 19.6702 28.8468 19.7647 28.6298C19.8592 28.4128 19.9088 28.1799 19.9107 27.9443V22.8352C19.9088 22.5995 19.8592 22.3666 19.7647 22.1496C19.6702 21.9326 19.5327 21.7358 19.3599 21.5705C19.1872 21.4052 18.9827 21.2746 18.758 21.1861C18.5333 21.0976 18.2929 21.053 18.0505 21.0549H11.6445C11.4021 21.0567 11.1617 21.0121 10.937 20.9236C10.7123 20.8352 10.5078 20.7045 10.335 20.5392C10.1623 20.3739 10.0247 20.1771 9.93023 19.9601C9.83573 19.7431 9.78613 19.5102 9.78425 19.2746V10.5817C9.79054 10.1074 9.98977 9.65491 10.3384 9.32303C10.687 8.99116 11.1566 8.80694 11.6445 8.81065H18.0505C18.2929 8.81249 18.5333 8.76789 18.758 8.67941C18.9827 8.59093 19.1872 8.46031 19.3599 8.29499C19.5327 8.12967 19.6702 7.9329 19.7647 7.71591C19.8592 7.49893 19.9088 7.26597 19.9107 7.03035V1.78217C19.9088 1.54655 19.8592 1.31359 19.7647 1.0966C19.6702 0.879614 19.5327 0.682843 19.3599 0.517525C19.1872 0.352208 18.9827 0.221581 18.758 0.133103C18.5333 0.0446255 18.2929 3.03654e-05 18.0505 0.00186397H1.27478C1.10627 -0.0073809 0.937628 0.0178367 0.779762 0.0758876C0.621896 0.133939 0.478314 0.223532 0.358292 0.338879C0.23827 0.454227 0.144477 0.592764 0.0829727 0.74554C0.021468 0.898316 -0.00638051 1.06193 0.00122622 1.22582Z" fill="#F2F2F2"/>
<path fill-rule="evenodd" clip-rule="evenodd" d="M68.4777 8.91734H70.4763C70.6385 8.91734 70.8436 8.91734 70.9056 9.01934C70.9807 9.21946 71.0116 9.43272 70.9962 9.64522V12.0329C70.9962 12.8906 70.8197 13.3264 70.4763 13.3264H68.7496C68.2436 13.3264 67.7583 13.5218 67.4005 13.8695C67.0427 14.2173 66.8416 14.689 66.8416 15.1809V28.6258C66.8474 28.7599 66.8255 28.8937 66.7773 29.0194C66.729 29.1451 66.6554 29.2601 66.5607 29.3577C66.4661 29.4554 66.3523 29.5336 66.226 29.5879C66.0998 29.6421 65.9637 29.6713 65.8257 29.6736H57.5738C57.4378 29.673 57.3034 29.6464 57.178 29.5953C57.0527 29.5442 56.9389 29.4695 56.8433 29.3757C56.7476 29.2818 56.6719 29.1706 56.6204 29.0483C56.569 28.926 56.5428 28.795 56.5435 28.6629V20.9034C56.5906 20.8868 56.6372 20.8685 56.6831 20.8485C56.9417 20.736 57.1735 20.5726 57.3639 20.3687C57.7685 19.9423 57.9903 19.3817 57.984 18.8017L57.9649 10.9943C57.9753 10.4313 57.7576 9.88678 57.3587 9.4783C57.129 9.24297 56.8497 9.06364 56.5435 8.95018V1.01261C56.5428 0.879713 56.5693 0.74801 56.6213 0.62511C56.6734 0.50221 56.7499 0.390548 56.8466 0.296574C56.9433 0.2026 57.0582 0.128177 57.1846 0.0776022C57.3111 0.0270275 57.4466 0.00130423 57.5833 0.00191808H70.462C70.7052 0.00191808 70.9819 0.00191807 70.9819 1.01261V4.32286C70.9819 5.33355 70.7052 5.33355 70.462 5.33355H68.4634C67.4188 5.33355 66.5554 5.74618 66.5554 7.18803C66.6079 8.81071 67.4331 8.91734 68.4777 8.91734Z" fill="#F2F2F2"/>
<path d="M52.1505 16.1173C52.7907 16.1173 53.3096 15.5756 53.3096 14.9073C53.3096 14.239 52.7907 13.6972 52.1505 13.6972C51.5104 13.6972 50.9915 14.239 50.9915 14.9073C50.9915 15.5756 51.5104 16.1173 52.1505 16.1173Z" fill="#F2F2F2"/>
<path d="M35.7754 1.22584V27.4065C35.7754 28.9457 36.6101 29.7246 37.6357 29.7246H53.8246C54.067 29.7264 54.3075 29.6818 54.5321 29.5933C54.7568 29.5049 54.9614 29.3742 55.1341 29.2089C55.3069 29.0436 55.4444 28.8468 55.5389 28.6298C55.6334 28.4129 55.683 28.1799 55.6849 27.9443V22.8352C55.683 22.5996 55.6334 22.3666 55.5389 22.1496C55.4444 21.9326 55.3069 21.7359 55.1341 21.5705C54.9614 21.4052 54.7568 21.2746 54.5321 21.1861C54.3075 21.0976 54.067 21.053 53.8246 21.0549H47.4187C47.1763 21.0567 46.9358 21.0121 46.7112 20.9236C46.4865 20.8352 46.2819 20.7045 46.1092 20.5392C45.9364 20.3739 45.7989 20.1771 45.7044 19.9601C45.6099 19.7432 45.5603 19.5102 45.5584 19.2746V10.5817C45.5647 10.1075 45.7639 9.65492 46.1125 9.32305C46.4611 8.99117 46.9307 8.80695 47.4187 8.81067H53.8246C54.067 8.8125 54.3075 8.76791 54.5321 8.67943C54.7568 8.59095 54.9614 8.46032 55.1341 8.29501C55.3069 8.12969 55.4444 7.93292 55.5389 7.71593C55.6334 7.49894 55.683 7.26599 55.6849 7.03036V1.78218C55.683 1.54656 55.6334 1.31361 55.5389 1.09662C55.4444 0.879629 55.3069 0.682858 55.1341 0.517541C54.9614 0.352223 54.7568 0.221596 54.5321 0.133118C54.3075 0.0446408 54.067 4.56242e-05 53.8246 0.00187922H37.049C36.8804 -0.00736564 36.7118 0.0178519 36.5539 0.0759029C36.3961 0.133954 36.2525 0.223547 36.1325 0.338895C36.0124 0.454242 35.9186 0.592779 35.8571 0.745555C35.7956 0.898331 35.7678 1.06195 35.7754 1.22584Z" fill="#F2F2F2"/>
</svg>
